<svg width="31" height="27" viewBox="0 0 31 27" fill="none" xmlns="http://www.w3.org/2000/svg">
<rect width="31" height="27" fill="#F9FAFB"/>
<path d="M19.1158 20C18.5882 20 17.9772 19.8259 17.2753 19.4782C16.4921 19.0903 16.1145 19.1039 15.8648 19.1163C15.6639 19.1225 15.4543 19.1327 15.2474 18.9167C15.1748 18.841 14.8449 18.4283 15.4933 17.7515C15.8166 17.414 16.2602 17.3168 16.6453 17.3111L14.3997 14.9671C14.2507 14.8122 14.1684 14.6047 14.1689 14.3848C14.1695 14.1648 14.2518 13.9585 14.4013 13.803C14.5508 13.6475 14.7485 13.561 14.9592 13.5605H14.9603C15.1704 13.5605 15.3681 13.6458 15.5171 13.8019L16.4498 14.776C16.4872 14.698 16.537 14.6262 16.5977 14.5634C16.8116 14.3395 17.1182 14.2706 17.3896 14.3588C17.4275 14.2468 17.4898 14.1411 17.5753 14.0518C17.8694 13.7442 18.3396 13.7306 18.6483 14.0094C18.6852 13.9313 18.735 13.859 18.7967 13.7945C19.1049 13.4728 19.6049 13.4723 19.9125 13.7928L21.375 15.3193C22.293 16.277 22.1907 17.6656 21.1253 18.7782C21.1231 18.7805 21.1209 18.7828 21.1182 18.7856L20.5132 19.4165C20.1362 19.8055 19.6726 20 19.1158 20ZM16.0116 18.5476C16.3074 18.5476 16.7618 18.5984 17.5076 18.9671C19.1244 19.7682 19.7798 19.3792 20.133 19.0157L20.7429 18.3791C20.7445 18.3768 20.7466 18.3751 20.7483 18.3734C21.3939 17.6916 21.8364 16.5999 20.9969 15.7236L19.5301 14.1925C19.4343 14.0925 19.2772 14.0936 19.1802 14.1942C19.0838 14.2949 19.0827 14.4583 19.1781 14.5589L19.1786 14.5595L19.5442 14.9411C19.5973 14.9965 19.6233 15.0689 19.6233 15.1412C19.6233 15.2136 19.5967 15.286 19.5442 15.3414C19.4386 15.4516 19.2669 15.4516 19.1613 15.3414L18.3082 14.4509C18.2123 14.3508 18.0552 14.3514 17.9583 14.4526C17.8613 14.5538 17.8608 14.7172 17.9572 14.8178L18.5665 15.4539C18.6196 15.5093 18.6456 15.5816 18.6456 15.654C18.6456 15.7264 18.6191 15.7987 18.5665 15.8542C18.4609 15.9644 18.2892 15.9644 18.1836 15.8542L17.3305 14.9637C17.2346 14.8636 17.0781 14.8648 16.9806 14.9654C16.9335 15.0146 16.9075 15.0802 16.9075 15.1491C16.9075 15.2176 16.9329 15.282 16.979 15.3301L17.5883 15.9661C17.6414 16.0215 17.6674 16.0939 17.6674 16.1662C17.6674 16.2386 17.6409 16.311 17.5883 16.3664C17.4827 16.4766 17.311 16.4766 17.2054 16.3664L15.1336 14.2044C15.087 14.1558 15.0253 14.1287 14.9597 14.1287C14.8937 14.1292 14.8314 14.1564 14.7843 14.2055C14.7371 14.2547 14.7111 14.3197 14.7106 14.3887C14.7106 14.4571 14.736 14.5216 14.7826 14.5702L17.5856 17.496C17.6734 17.587 17.6902 17.7289 17.6268 17.8397C17.5634 17.9505 17.4351 18.0026 17.3175 17.9669C17.3072 17.9641 16.3371 17.6735 15.8757 18.1541C15.666 18.3734 15.6352 18.508 15.6406 18.538C15.6633 18.5543 15.6688 18.5606 15.8432 18.5532C15.8935 18.5498 15.9493 18.5476 16.0116 18.5476Z" fill="#204A8C"/>
<path d="M19.0204 10.9576H10.8957C9.85038 10.9576 9 10.0699 9 8.97879C9 7.88763 9.85038 7 10.8957 7H19.0204C20.0657 7 20.9161 7.88763 20.9161 8.97879C20.9161 10.0699 20.0657 10.9576 19.0204 10.9576ZM10.8957 7.56537C10.1494 7.56537 9.54164 8.19914 9.54164 8.97879C9.54164 9.75843 10.1494 10.3922 10.8957 10.3922H19.0204C19.7668 10.3922 20.3745 9.75843 20.3745 8.97879C20.3745 8.19914 19.7668 7.56537 19.0204 7.56537H10.8957Z" fill="#204A8C"/>
<path d="M11.4375 9.82684C10.9895 9.82684 10.625 9.44635 10.625 8.97879C10.625 8.51123 10.9895 8.13074 11.4375 8.13074C11.8854 8.13074 12.2499 8.51123 12.2499 8.97879C12.2499 9.44635 11.8854 9.82684 11.4375 9.82684ZM11.4375 8.6961C11.288 8.6961 11.1666 8.82331 11.1666 8.97879C11.1666 9.13426 11.288 9.26147 11.4375 9.26147C11.587 9.26147 11.7083 9.13426 11.7083 8.97879C11.7083 8.82331 11.587 8.6961 11.4375 8.6961Z" fill="#204A8C"/>
<path d="M14.1455 9.82684C13.6975 9.82684 13.333 9.44635 13.333 8.97879C13.333 8.51123 13.6975 8.13074 14.1455 8.13074C14.5934 8.13074 14.9579 8.51123 14.9579 8.97879C14.9579 9.44635 14.5934 9.82684 14.1455 9.82684ZM14.1455 8.6961C13.996 8.6961 13.8746 8.82331 13.8746 8.97879C13.8746 9.13426 13.996 9.26147 14.1455 9.26147C14.295 9.26147 14.4163 9.13426 14.4163 8.97879C14.4163 8.82331 14.295 8.6961 14.1455 8.6961Z" fill="#204A8C"/>
<path d="M13.0623 14.3498H10.8957C9.85038 14.3498 9 13.4622 9 12.371C9 11.8429 9.19716 11.3466 9.55572 10.9723C9.91429 10.598 10.3904 10.3922 10.8957 10.3922H19.0204C20.0657 10.3922 20.9161 11.2798 20.9161 12.371C20.9161 12.527 20.7948 12.6537 20.6453 12.6537C20.4958 12.6537 20.3745 12.527 20.3745 12.371C20.3745 11.5914 19.7668 10.9576 19.0204 10.9576H10.8957C10.535 10.9576 10.1954 11.1051 9.93867 11.372C9.68193 11.6388 9.54164 11.9945 9.54164 12.371C9.54164 13.1506 10.1494 13.7844 10.8957 13.7844H13.0623C13.2118 13.7844 13.3331 13.9111 13.3331 14.0671C13.3331 14.2231 13.2118 14.3498 13.0623 14.3498Z" fill="#204A8C"/>
<path d="M11.4375 13.2191C10.9895 13.2191 10.625 12.8386 10.625 12.371C10.625 11.9034 10.9895 11.5229 11.4375 11.5229C11.8854 11.5229 12.2499 11.9034 12.2499 12.371C12.2499 12.8386 11.8854 13.2191 11.4375 13.2191ZM11.4375 12.0883C11.288 12.0883 11.1666 12.2155 11.1666 12.371C11.1666 12.5265 11.288 12.6537 11.4375 12.6537C11.587 12.6537 11.7083 12.5265 11.7083 12.371C11.7083 12.2155 11.587 12.0883 11.4375 12.0883Z" fill="#204A8C"/>
<path d="M14.1455 13.2191C13.6975 13.2191 13.333 12.8386 13.333 12.371C13.333 11.9034 13.6975 11.5229 14.1455 11.5229C14.5934 11.5229 14.9579 11.9034 14.9579 12.371C14.9579 12.8386 14.5934 13.2191 14.1455 13.2191ZM14.1455 12.0883C13.996 12.0883 13.8746 12.2155 13.8746 12.371C13.8746 12.5265 13.996 12.6537 14.1455 12.6537C14.295 12.6537 14.4163 12.5265 14.4163 12.371C14.4163 12.2155 14.295 12.0883 14.1455 12.0883Z" fill="#204A8C"/>
<path d="M14.1456 17.742H10.8957C9.85038 17.742 9 16.8543 9 15.7632C9 15.2351 9.19716 14.7387 9.55572 14.3645C9.91429 13.9902 10.3904 13.7844 10.8957 13.7844H13.0623C13.2118 13.7844 13.3331 13.911 13.3331 14.0671C13.3331 14.2231 13.2118 14.3498 13.0623 14.3498H10.8957C10.535 14.3498 10.1954 14.4973 9.93867 14.7642C9.68193 15.031 9.54164 15.3866 9.54164 15.7632C9.54164 16.5428 10.1494 17.1766 10.8957 17.1766H14.1456C14.2951 17.1766 14.4164 17.3032 14.4164 17.4593C14.4164 17.6153 14.2951 17.742 14.1456 17.742Z" fill="#204A8C"/>
<path d="M11.4375 16.6112C10.9895 16.6112 10.625 16.2307 10.625 15.7632C10.625 15.2956 10.9895 14.9151 11.4375 14.9151C11.8854 14.9151 12.2499 15.2956 12.2499 15.7632C12.2499 16.2307 11.8854 16.6112 11.4375 16.6112ZM11.4375 15.4805C11.288 15.4805 11.1666 15.6077 11.1666 15.7632C11.1666 15.9187 11.288 16.0459 11.4375 16.0459C11.587 16.0459 11.7083 15.9187 11.7083 15.7632C11.7083 15.6077 11.587 15.4805 11.4375 15.4805Z" fill="#204A8C"/>
</svg>
