<svg width="16" height="16" viewBox="0 0 16 16" fill="none" xmlns="http://www.w3.org/2000/svg">
<path fill-rule="evenodd" clip-rule="evenodd" d="M7.64602 11.354C7.69247 11.4006 7.74764 11.4375 7.80839 11.4627C7.86913 11.4879 7.93425 11.5009 8.00002 11.5009C8.06579 11.5009 8.13091 11.4879 8.19165 11.4627C8.2524 11.4375 8.30758 11.4006 8.35402 11.354L14.354 5.35399C14.4479 5.2601 14.5007 5.13277 14.5007 4.99999C14.5007 4.86722 14.4479 4.73988 14.354 4.64599C14.2601 4.5521 14.1328 4.49936 14 4.49936C13.8672 4.49936 13.7399 4.5521 13.646 4.64599L8.00002 10.293L2.35402 4.64599C2.26013 4.5521 2.1328 4.49936 2.00002 4.49936C1.86725 4.49936 1.73991 4.5521 1.64602 4.64599C1.55213 4.73988 1.49939 4.86722 1.49939 4.99999C1.49939 5.13277 1.55213 5.2601 1.64602 5.35399L7.64602 11.354Z" fill="#1F2937"/>
</svg>
